grf
version=1
nRows=11
nColumns=37
inDegrees=no
endheader
time	ground_force_1_vx	ground_force_1_vy	ground_force_1_vz	ground_force_1_px	ground_force_1_py	ground_force_1_pz	ground_moment_1_mx	ground_moment_1_my	ground_moment_1_mz	ground_force_2_vx	ground_force_2_vy	ground_force_2_vz	ground_force_2_px	ground_force_2_py	ground_force_2_pz	ground_moment_2_mx	ground_moment_2_my	ground_moment_2_mz	ground_force_3_vx	ground_force_3_vy	ground_force_3_vz	ground_force_3_px	ground_force_3_py	ground_force_3_pz	ground_moment_3_mx	ground_moment_3_my	ground_moment_3_mz	ground_force_4_vx	ground_force_4_vy	ground_force_4_vz	ground_force_4_px	ground_force_4_py	ground_force_4_pz	ground_moment_4_mx	ground_moment_4_my	ground_moment_4_mz
      1.63000000	      0.00000000	     -0.00000000	      0.00000000	      0.00000000	      0.00000000	      0.00000000	      0.00000000	      0.00000000	      0.00000000	     13.21268177	     16.52719498	   -345.25912476	   -331.17401825	  -1137.14183064	      0.00000000	      0.00000000	      0.00000000	   1245.54407224	      2.48390094	    -23.64768230	   -368.39212036	   -327.65559116	   -711.55882595	      0.00000000	     -0.00000000	     -0.00000000	  -5022.23568614	      0.00000000	     -0.00000000	      0.00000000	      0.00000000	      0.00000000	      0.00000000	      0.00000000	      0.00000000	      0.00000000
      1.64000000	      0.00000000	     -0.00000000	      0.00000000	      0.00000000	      0.00000000	      0.00000000	      0.00000000	      0.00000000	      0.00000000	     12.11329651	     18.20412636	   -348.31195068	   -330.63243044	  -1135.51919633	      0.00000000	      0.00000000	      0.00000000	   1434.55070245	      3.48137161	    -22.44324699	   -366.33547974	   -327.00964191	   -711.61831212	      0.00000000	      0.00000000	     -0.00000000	  -4987.68874142	      0.00000000	     -0.00000000	      0.00000000	      0.00000000	      0.00000000	      0.00000000	      0.00000000	      0.00000000	      0.00000000
      1.65000000	      0.00000000	     -0.00000000	      0.00000000	      0.00000000	      0.00000000	      0.00000000	      0.00000000	      0.00000000	      0.00000000	     11.82573891	     17.96423912	   -352.90795898	   -330.21583648	  -1139.47133782	      0.00000000	      0.00000000	      0.00000000	   1564.56507400	      4.50479508	    -21.57954426	   -365.36572266	   -327.28046806	   -711.45735171	      0.00000000	      0.00000000	     -0.00000000	  -4952.59950734	      0.00000000	     -0.00000000	      0.00000000	      0.00000000	      0.00000000	      0.00000000	      0.00000000	      0.00000000	      0.00000000
      1.66000000	      0.00000000	     -0.00000000	      0.00000000	      0.00000000	      0.00000000	      0.00000000	      0.00000000	      0.00000000	      0.00000000	     10.55670643	     17.74689674	   -353.25875854	   -329.24694713	  -1137.49014430	      0.00000000	      0.00000000	      0.00000000	   1670.30419828	      4.85935834	    -21.14817831	   -364.78579712	   -326.61537932	   -710.78105806	      0.00000000	      0.00000000	     -0.00000000	  -4854.44354167	      0.00000000	     -0.00000000	      0.00000000	      0.00000000	      0.00000000	      0.00000000	      0.00000000	      0.00000000	      0.00000000
      1.67000000	      0.00000000	     -0.00000000	      0.00000000	      0.00000000	      0.00000000	      0.00000000	      0.00000000	      0.00000000	      0.00000000	      8.88069057	     17.88656807	   -356.27868652	   -327.06628544	  -1138.13981570	      0.00000000	      0.00000000	      0.00000000	   1695.40045717	      4.78038037	    -19.05886290	   -364.31747437	   -326.00544635	   -711.10020371	      0.00000000	      0.00000000	     -0.00000000	  -4754.24467323	      0.00000000	     -0.00000000	      0.00000000	      0.00000000	      0.00000000	      0.00000000	      0.00000000	      0.00000000	      0.00000000
      1.68000000	      0.00000000	     -0.00000000	      0.00000000	      0.00000000	      0.00000000	      0.00000000	      0.00000000	      0.00000000	      0.00000000	      7.03739929	     18.82695770	   -356.35858154	   -326.53291905	  -1137.99016456	      0.00000000	      0.00000000	      0.00000000	   2031.26544718	      4.15926519	    -18.38100642	   -362.41937256	   -325.43518924	   -712.11588505	      0.00000000	      0.00000000	     -0.00000000	  -4792.82516217	      0.00000000	     -0.00000000	      0.00000000	      0.00000000	      0.00000000	      0.00000000	      0.00000000	      0.00000000	      0.00000000
      1.69000000	      0.00000000	     -0.00000000	      0.00000000	      0.00000000	      0.00000000	      0.00000000	      0.00000000	      0.00000000	      0.00000000	      5.22190523	     19.42005730	   -357.50027466	   -326.50052870	  -1138.84000128	      0.00000000	      0.00000000	      0.00000000	   2215.00678867	      2.05063500	    -18.62563333	   -361.77685547	   -324.76374142	   -713.24870492	      0.00000000	      0.00000000	     -0.00000000	  -4909.67235608	      0.00000000	     -0.00000000	      0.00000000	      0.00000000	      0.00000000	      0.00000000	      0.00000000	      0.00000000	      0.00000000
      1.70000000	      0.00000000	     -0.00000000	      0.00000000	      0.00000000	      0.00000000	      0.00000000	      0.00000000	      0.00000000	      0.00000000	      4.72815704	     19.24165726	   -358.83081055	   -325.39747212	  -1138.34942518	      0.00000000	      0.00000000	      0.00000000	   2334.23358283	      0.32355804	    -18.98916246	   -363.46685791	   -322.78135854	   -711.75247930	      0.00000000	     -0.00000000	     -0.00000000	  -4835.39845858	      0.00000000	     -0.00000000	      0.00000000	      0.00000000	      0.00000000	      0.00000000	      0.00000000	      0.00000000	      0.00000000
      1.71000000	      0.00000000	     -0.00000000	      0.00000000	      0.00000000	      0.00000000	      0.00000000	      0.00000000	      0.00000000	      0.00000000	      4.10368347	     18.95951462	   -360.24353027	   -325.98001095	  -1139.13991051	      0.00000000	      0.00000000	      0.00000000	   2527.24101398	     -1.05396820	    -19.30038638	   -361.49664307	   -322.34030443	   -711.89063550	      0.00000000	     -0.00000000	     -0.00000000	  -4911.99194936	      0.00000000	     -0.00000000	      0.00000000	      0.00000000	      0.00000000	      0.00000000	      0.00000000	      0.00000000	      0.00000000
      1.72000000	      0.00000000	     -0.00000000	      0.00000000	      0.00000000	      0.00000000	      0.00000000	      0.00000000	      0.00000000	      0.00000000	      4.18210030	     19.67339325	   -360.76766968	   -324.14595815	  -1138.65164311	      0.00000000	      0.00000000	      0.00000000	   2862.26705339	     -2.15046105	    -18.50184813	   -361.55261230	   -320.63072496	   -711.06377198	      0.00000000	      0.00000000	      0.00000000	  -4794.73558977	      0.00000000	     -0.00000000	      0.00000000	      0.00000000	      0.00000000	      0.00000000	      0.00000000	      0.00000000	      0.00000000
      1.73000000	      0.00000000	     -0.00000000	      0.00000000	      0.00000000	      0.00000000	      0.00000000	      0.00000000	      0.00000000	      0.00000000	      3.33361602	     19.19583321	   -358.73757935	   -323.44139031	  -1140.11580416	      0.00000000	      0.00000000	      0.00000000	   3039.74762369	     -3.35123810	    -18.28258881	   -359.01324463	   -319.62344009	   -711.12753020	      0.00000000	      0.00000000	     -0.00000000	  -4506.90162241	      0.00000000	     -0.00000000	      0.00000000	      0.00000000	      0.00000000	      0.00000000	      0.00000000	      0.00000000	      0.00000000
